<svg xmlns="http://www.w3.org/2000/svg" xmlns:xlink="http://www.w3.org/1999/xlink"
    class="" app-context="doc-2d" x="0px" y="0px" width="500" height="500" jvs-fullPath="gdrive/CHUB.svg">
    <title />
    <desc />
    <defs />
    <g id="jvs-guides" transform="matrix(1 0 0 1 0 0)" />
    <g id="jvs-content" enable-background="new">
        <g transform="matrix(1,0,0,1,0,0)" name="Layer" jvs-layer-color="#fb0094" class="jvs-layer selected">
            <path d="M 147.65185546875 499.2151794433594 C 138.82452392578125 496.738525390625 134.96255493164062 499.890625 121.16983032226562 485.7063293457031 C 97.69073486328125 461.560546875 117.307861328125 526.908447265625 150.9621124267578 522.8557739257812" fill="rgb(170,136,179)" fill-rule="nonzero" stroke="rgb(92,90,90)" stroke-width="5.532353425822953" stroke-linecap="butt" stroke-linejoin="miter" stroke-miterlimit="10" stroke-dasharray="" stroke-dashoffset="0" font-family="none" font-weight="none" font-size="none" text-anchor="none" style="mix-blend-mode: normal" transform="matrix(0.994148 -0.108023 0.108023 0.994148 -50.1468 -90.8062)" opacity="1" fill-opacity="1" stroke-opacity="1" />
            <path stroke-width="5.000000020172638" stroke="rgb(92,90,90)" fill="rgb(170,136,179)" d="M 200.43600463867188 200.1330108642578 C 181.71925354003906 247.39199829101562 172.3098907470703 392.8634033203125 200.43600463867188 420.98870849609375 C 209.32620239257812 429.878662109375 370.288818359375 429.4107666015625 380.1152038574219 420.98870849609375 C 410.3156433105469 395.10418701171875 393.2166442871094 230.07911682128906 380.1152038574219 200.1330108642578 C 351.63092041015625 135.02650451660156 226.62841796875 133.99830627441406 200.43600463867188 200.1330108642578" transform="matrix(1 0 0 1 -43.8568 15.6517)" fill-opacity="1" stroke-opacity="1" />
            <ellipse cx="229.866" cy="295.669" rx="32.3025" ry="32.3025" fill="rgb(255,253,253)" stroke="none" stroke-width="3.2869681119918823" stroke-linecap="butt" stroke-linejoin="miter" opacity="1" transform="matrix(1 0 0 1 -38.6705 -21.4042)" fill-opacity="1" />
            <path d="M 106.37701416015625 281.8804931640625 C 106.37701416015625 302.51605224609375 120.90400695800781 305.5634765625 125.78091430664062 305.3740234375 C 141.13490295410156 304.777587890625 144.0434112548828 290.7852783203125 144.769775390625 282.0699462890625" fill="none" fill-rule="nonzero" stroke="rgb(92,90,90)" stroke-width="7.171289731945043" stroke-linecap="round" stroke-linejoin="miter" stroke-miterlimit="10" stroke-dasharray="" stroke-dashoffset="0" font-family="none" font-weight="none" font-size="none" text-anchor="none" style="mix-blend-mode: normal" opacity="1" transform="matrix(1 0 0 1 63.4051 104.99)" stroke-opacity="1" />
            <path d="M 106.37701416015625 281.8804931640625 C 106.37701416015625 302.51605224609375 120.90400695800781 305.5634765625 125.78091430664062 305.3740234375 C 141.13490295410156 304.777587890625 144.0434112548828 290.7852783203125 144.769775390625 282.0699462890625" fill="none" fill-rule="nonzero" stroke="rgb(92,90,90)" stroke-width="7.171289668952082" stroke-linecap="round" stroke-linejoin="miter" stroke-miterlimit="10" stroke-dasharray="" stroke-dashoffset="0" font-family="none" font-weight="none" font-size="none" text-anchor="none" style="mix-blend-mode: normal" opacity="1" transform="matrix(1 0 0 1 180.373 104.99)" stroke-opacity="1" />
            <ellipse cx="48.8644" cy="62.8523" rx="6.86674" ry="6.86674" fill="rgb(255,253,253)" stroke="none" stroke-width="0.21660708427426748" stroke-linecap="butt" stroke-linejoin="miter" opacity="1" transform="matrix(1 0 0 1 151.722 211.04)" fill-opacity="1" />
            <ellipse id="left-eye" cx="173.911" cy="223.695" rx="24.439" ry="24.439" fill="rgb(94,92,92)" stroke="none" stroke-width="0.7709161041497489" stroke-linecap="butt" stroke-linejoin="miter" opacity="1" transform="matrix(1 0 0 1 17.8361 54.8037)" fill-opacity="1" />
            <ellipse cx="57.4116" cy="73.8462" rx="8.06784" ry="8.06784" fill="rgb(255,253,253)" stroke="none" stroke-width="0.2544952127684174" stroke-linecap="butt" stroke-linejoin="miter" opacity="1" transform="matrix(1 0 0 1 142.121 194.835)" fill-opacity="1" />
            <path d="M 106.37701416015625 281.8804931640625 C 106.37701416015625 302.51605224609375 120.90400695800781 305.5634765625 125.78091430664062 305.3740234375 C 141.13490295410156 304.777587890625 144.0434112548828 290.7852783203125 144.769775390625 282.0699462890625" fill="rgb(170,136,179)" fill-rule="nonzero" stroke="rgb(92,90,90)" stroke-width="7.171289731945043" stroke-linecap="round" stroke-linejoin="miter" stroke-miterlimit="10" stroke-dasharray="" stroke-dashoffset="0" font-family="none" font-weight="none" font-size="none" text-anchor="none" style="mix-blend-mode: normal" opacity="1" transform="matrix(0.998975 0.0452655 -0.0452655 0.998975 79.3185 147.244)" fill-opacity="1" stroke-opacity="1" />
            <path d="M 106.37701416015625 281.8804931640625 C 106.37701416015625 302.51605224609375 120.90400695800781 305.5634765625 125.78091430664062 305.3740234375 C 141.13490295410156 304.777587890625 144.0434112548828 290.7852783203125 144.769775390625 282.0699462890625" fill="rgb(170,136,179)" fill-rule="nonzero" stroke="rgb(92,90,90)" stroke-width="7.171289731945043" stroke-linecap="round" stroke-linejoin="miter" stroke-miterlimit="10" stroke-dasharray="" stroke-dashoffset="0" font-family="none" font-weight="none" font-size="none" text-anchor="none" style="mix-blend-mode: normal" opacity="1" transform="matrix(0.998588 -0.0531154 0.0531154 0.998588 164.328 161.042)" fill-opacity="1" stroke-opacity="1" />
            <path fill="none" stroke="rgb(92,90,90)" stroke-width="19" stroke-linecap="round" stroke-linejoin="miter" opacity="1" d="M 296.65179443359375 341.65185546875 C 297.03232828776044 347.35980224609375 297.0350646972656 352.6562194824219 296.65179443359375 341.65185546875 C 294.6685384114583 291.2768961588542 306.76646931966144 259.9412892659505 332.9455871582031 247.64503479003906" transform="matrix(1 0 0 1 -52.6143 -159.126)" stroke-opacity="1" />
            <path fill="rgb(96,155,124)" stroke="rgb(92,90,90)" stroke-width="6" stroke-linecap="round" stroke-linejoin="miter" opacity="1" d="M 61.718475341796875 163.09173583984375 C 28.390202840169273 217.82989501953125 28.390202840169273 245.198974609375 61.718475341796875 245.198974609375 C 95.69387817382812 245.198974609375 95.69387817382812 217.82989501953125 61.718475341796875 163.09173583984375 Z" transform="matrix(0.649538 -0.76033 0.76033 0.649538 52.4888 -24.3394)" fill-opacity="1" stroke-opacity="1" />
            <path fill="rgb(96,155,124)" stroke="rgb(92,90,90)" stroke-width="6" stroke-linecap="round" stroke-linejoin="miter" opacity="1" d="M 138.9329376220703 339.5548400878906 L 118.75282287597656 327.9673156738281" transform="matrix(0.978783 0.204898 -0.204898 0.978783 212.598 -272.818)" fill-opacity="1" stroke-opacity="1" />
            <path fill="rgb(96,155,124)" stroke="rgb(92,90,90)" stroke-width="6" stroke-linecap="round" stroke-linejoin="miter" opacity="1" d="M 30.459537506103516 104.47465515136719 C 14.011270523071289 137.76797485351562 14.011263847351074 154.9608154296875 30.459558486938477 156.0531768798828 C 47.227230072021484 157.166748046875 47.22721862792969 139.973876953125 30.459537506103516 104.47465515136719 Z" transform="matrix(-0.187238 0.982315 -0.982315 -0.187238 443.015 84.7871)" fill-opacity="1" stroke-opacity="1" />
            <path fill="rgb(96,155,124)" stroke="rgb(92,90,90)" stroke-width="6" stroke-linecap="round" stroke-linejoin="miter" opacity="1" d="M 84.17316436767578 187.88572692871094 L 71.94696044921875 179.9036865234375" transform="matrix(-0.878791 0.477207 -0.477207 -0.878791 445.636 210.884)" fill-opacity="1" stroke-opacity="1" />
            <path fill="rgb(96,155,124)" stroke="rgb(92,90,90)" stroke-width="8.090834696564585" stroke-linecap="round" stroke-linejoin="miter" opacity="1" d="M 45.1518669128418 124.24597930908203 C 20.769689559936523 166.86492919921875 20.769695281982422 187.89117431640625 45.15188980102539 187.32472229003906 C 70.00753021240234 186.74728393554688 70.00751495361328 165.72100830078125 45.1518669128418 124.24597930908203 Z" transform="matrix(-0.946579 0.322471 -0.322471 -0.946579 377.85 260.6)" fill-opacity="1" stroke-opacity="1" />
            <path fill="rgb(96,155,124)" stroke="rgb(92,90,90)" stroke-width="8.141737111156493" stroke-linecap="round" stroke-linejoin="miter" opacity="1" d="M 103.74609375 250.56886291503906 L 90.81819152832031 242.21591186523438" transform="matrix(-0.827063 -0.562109 0.562109 -0.827063 219.661 363.395)" fill-opacity="1" stroke-opacity="1" />
            <path d="M 43.437042236328125 124.57362365722656 C 43.437042236328125 133.32801818847656 36.340179443359375 140.42491149902344 27.585769653320312 140.42491149902344 C 18.831344604492188 140.42491149902344 11.734481811523438 133.32801818847656 11.734481811523438 124.57362365722656" stroke-width="6.488074779510498" stroke="rgb(92,90,90)" fill="none" transform="matrix(1 0 0 1 218.571 175.355)" stroke-linecap="round" stroke-opacity="1" />
            <path d="M 178.53466796875 519.7821044921875 C 178.53466796875 557.833740234375 202.91561889648438 563.4530029296875 211.10061645507812 563.1036987304688 C 236.86952209472656 562.00390625 241.7509307861328 536.2023315429688 242.97000122070312 520.1314697265625" fill="rgb(198,169,206)" fill-rule="nonzero" stroke="none" stroke-width="12.615742228068331" stroke-linecap="round" stroke-linejoin="miter" stroke-miterlimit="10" stroke-dasharray="" stroke-dashoffset="0" font-family="none" font-weight="none" font-size="none" text-anchor="none" style="mix-blend-mode: normal" opacity="1" transform="matrix(-1 -1.22465e-16 1.22465e-16 -1 458.547 959.404)" fill-opacity="1" />
            <ellipse cx="22.851" cy="29.3924" rx="3.21117" ry="3.21117" fill="rgb(255,253,253)" stroke="none" stroke-width="0.10129451955963957" stroke-linecap="butt" stroke-linejoin="miter" opacity="1" transform="matrix(1 0 0 1 166.628 243.899)" fill-opacity="1" />
            <ellipse cx="229.866" cy="295.669" rx="32.3025" ry="32.3025" fill="rgb(255,253,253)" stroke="none" stroke-width="3.2869681119918823" stroke-linecap="butt" stroke-linejoin="miter" opacity="1" transform="matrix(1 0 0 1 71.6093 -20.3851)" fill-opacity="1" />
            <ellipse cx="48.8644" cy="62.8523" rx="6.86674" ry="6.86674" fill="rgb(255,253,253)" stroke="none" stroke-width="0.21660708427426748" stroke-linecap="butt" stroke-linejoin="miter" opacity="1" transform="matrix(1 0 0 1 261.002 214.059)" fill-opacity="1" />
            <ellipse id="right-eye" cx="173.911" cy="223.695" rx="24.439" ry="24.439" fill="rgb(94,92,92)" stroke="none" stroke-width="0.7709161041497489" stroke-linecap="butt" stroke-linejoin="miter" opacity="1" transform="matrix(1 0 0 1 128.116 55.8228)" fill-opacity="1" />
            <ellipse cx="57.4116" cy="73.8462" rx="8.06784" ry="8.06784" fill="rgb(255,253,253)" stroke="none" stroke-width="0.2544952127684174" stroke-linecap="butt" stroke-linejoin="miter" opacity="1" transform="matrix(1 0 0 1 252.401 195.854)" fill-opacity="1" />
            <ellipse cx="22.851" cy="29.3924" rx="3.21117" ry="3.21117" fill="rgb(255,253,253)" stroke="none" stroke-width="0.10129451955963957" stroke-linecap="butt" stroke-linejoin="miter" opacity="1" transform="matrix(1 0 0 1 276.908 244.918)" fill-opacity="1" />
        </g>
    </g>
</svg>
